<?xml version="1.0" encoding="UTF-8" standalone="no"?>
<!DOCTYPE svg PUBLIC "-//W3C//DTD SVG 1.1//EN" "http://www.w3.org/Graphics/SVG/1.1/DTD/svg11.dtd">
<svg width="100%" height="100%" viewBox="0 0 300 300" version="1.1" xmlns="http://www.w3.org/2000/svg" xmlns:xlink="http://www.w3.org/1999/xlink" xml:space="preserve" xmlns:serif="http://www.serif.com/" style="fill-rule:evenodd;clip-rule:evenodd;stroke-linejoin:round;stroke-miterlimit:2;">
    <g transform="matrix(2.10579,0,0,2.10579,-967.071,-777.588)">
        <path d="M572.408,446.358C569.098,447.237 565.687,447.682 562.261,447.681C551.831,447.681 542.037,443.627 534.679,436.269C529.848,431.41 526.375,425.37 524.606,418.75C522.836,412.13 522.833,405.162 524.596,398.541C524.816,397.713 524.815,396.842 524.592,396.014C524.369,395.187 523.933,394.433 523.327,393.828C522.72,393.223 521.966,392.787 521.138,392.566C520.311,392.345 519.439,392.345 518.612,392.566C510.322,394.775 502.759,399.125 496.682,405.18C477.639,424.222 477.639,455.219 496.682,474.272C501.208,478.823 506.592,482.432 512.523,484.889C518.453,487.346 524.811,488.602 531.23,488.586C537.648,488.604 544.005,487.348 549.934,484.892C555.862,482.436 561.245,478.828 565.769,474.277C571.828,468.198 576.18,460.631 578.388,452.337C578.607,451.51 578.605,450.639 578.382,449.812C578.16,448.986 577.724,448.232 577.119,447.627C576.513,447.021 575.76,446.586 574.933,446.363C574.106,446.14 573.236,446.138 572.408,446.358ZM558.866,467.369C555.246,471.009 550.94,473.895 546.197,475.86C541.454,477.824 536.369,478.829 531.235,478.815C526.1,478.828 521.013,477.822 516.268,475.857C511.524,473.891 507.216,471.005 503.595,467.364C488.362,452.127 488.362,427.329 503.595,412.092C506.538,409.152 509.936,406.706 513.658,404.848C513.113,411.878 514.093,418.943 516.529,425.56C518.966,432.176 522.802,438.189 527.777,443.187C532.763,448.177 538.774,452.024 545.394,454.462C552.014,456.901 559.084,457.872 566.116,457.31C564.247,461.026 561.8,464.421 558.866,467.369Z" 
        style="fill:url(#tnpb_Linear1);fill-rule:nonzero;"
        />
    </g>
    <defs>
        <linearGradient id="tnpb_Linear1" x1="0" y1="0" x2="1" y2="0" gradientUnits="userSpaceOnUse" gradientTransform="matrix(5.88969e-15,96.186,-96.186,5.88969e-15,530.475,392.4)"><stop offset="0" style="stop-color:rgb(250,250,252);stop-opacity:1"/><stop offset="1" style="stop-color:rgb(203,210,231);stop-opacity:1"/></linearGradient>
    </defs>
</svg>
