<?xml version="1.0" encoding="UTF-8" standalone="no"?>
<!DOCTYPE svg PUBLIC "-//W3C//DTD SVG 1.1//EN" "http://www.w3.org/Graphics/SVG/1.1/DTD/svg11.dtd">
<svg width="100%" height="100%" viewBox="0 0 300 300" version="1.1" xmlns="http://www.w3.org/2000/svg" xmlns:xlink="http://www.w3.org/1999/xlink" xml:space="preserve" xmlns:serif="http://www.serif.com/" style="fill-rule:evenodd;clip-rule:evenodd;stroke-linejoin:round;stroke-miterlimit:2;">
    <g transform="matrix(2.10579,0,0,2.10579,-1534.06,-776.168)">
        <path d="M860.9,435.325C860.673,434.656 860.289,434.052 859.778,433.565C859.268,433.077 858.647,432.72 857.969,432.525C850.945,430.5 844.907,425.972 840.997,419.797C837.087,413.621 835.576,406.226 836.75,399.012C836.891,398.287 836.847,397.539 836.621,396.836C836.395,396.133 835.995,395.499 835.457,394.992C834.92,394.485 834.264,394.123 833.549,393.939C832.834,393.754 832.084,393.754 831.369,393.937C825.598,395.122 820.332,398.055 816.286,402.336C812.239,406.617 809.608,412.04 808.75,417.868C804.393,416.483 799.846,415.789 795.275,415.812C775.106,415.812 758.394,429.375 756.162,446.787C751.401,447.409 747.012,449.689 743.764,453.225C740.515,456.761 738.616,461.328 738.4,466.125C738.705,471.63 741.177,476.792 745.276,480.481C749.375,484.17 754.767,486.086 760.275,485.812L777.775,485.812C778.935,485.812 780.048,485.351 780.868,484.531C781.689,483.71 782.15,482.597 782.15,481.437C782.15,480.277 781.689,479.164 780.868,478.343C780.048,477.523 778.935,477.062 777.775,477.062L760.275,477.062C757.091,477.319 753.934,476.317 751.48,474.272C749.026,472.228 747.472,469.302 747.15,466.125C747.472,462.947 749.026,460.022 751.48,457.977C753.934,455.932 757.091,454.93 760.275,455.187C761.435,455.187 762.548,454.726 763.368,453.906C764.189,453.085 764.65,451.972 764.65,450.812C764.65,436.331 778.387,424.562 795.275,424.562C801.546,424.342 807.733,426.054 812.999,429.466C818.265,432.877 822.356,437.824 824.719,443.637C824.986,444.419 825.468,445.109 826.111,445.627C826.753,446.146 827.53,446.472 828.35,446.568C832.275,446.838 835.967,448.527 838.737,451.321C841.507,454.115 843.165,457.822 843.4,461.75C843.085,466.091 841.072,470.134 837.796,473.001C834.519,475.868 830.245,477.327 825.9,477.062L795.275,477.062C794.115,477.062 793.002,477.523 792.181,478.343C791.361,479.164 790.9,480.277 790.9,481.437C790.9,482.597 791.361,483.71 792.181,484.531C793.002,485.351 794.115,485.812 795.275,485.812L825.9,485.812C832.567,486.085 839.072,483.707 843.991,479.198C848.91,474.689 851.843,468.415 852.15,461.75C852.128,457.02 850.595,452.421 847.775,448.625C852.616,446.667 856.846,443.449 860.025,439.306C860.483,438.763 860.802,438.117 860.954,437.423C861.107,436.73 861.088,436.009 860.9,435.325ZM842.481,441.362C841.982,441.524 841.51,441.76 841.081,442.062C838.396,440.336 835.437,439.079 832.331,438.343C829.194,431.3 823.87,425.455 817.15,421.675C817.22,418.196 818.203,414.798 820,411.819C821.796,408.84 824.344,406.385 827.387,404.7C827.523,411.714 829.582,418.556 833.339,424.481C837.096,430.406 842.407,435.185 848.694,438.3C846.75,439.697 844.572,440.734 842.262,441.362L842.481,441.362Z" style="fill:url(#pwql_Linear1);fill-rule:nonzero;"/>
        <path d="M860.9,435.325C860.674,434.656 860.289,434.052 859.778,433.565C859.268,433.077 858.647,432.72 857.969,432.525C850.945,430.5 844.907,425.972 840.997,419.797C837.087,413.621 835.576,406.226 836.75,399.012C836.891,398.287 836.847,397.539 836.621,396.836C836.395,396.133 835.995,395.499 835.458,394.992C834.92,394.485 834.264,394.123 833.549,393.939C832.834,393.754 832.084,393.754 831.369,393.937C825.598,395.122 820.332,398.055 816.286,402.336C812.239,406.617 809.608,412.04 808.75,417.868C810.383,418.408 814.35,419.925 817.15,421.675C817.22,418.196 818.203,414.798 820,411.819C821.796,408.84 824.344,406.385 827.388,404.7C827.523,411.714 829.582,418.556 833.339,424.481C837.096,430.406 842.407,435.185 848.694,438.3C846.751,439.697 844.572,440.734 842.263,441.362L842.481,441.362C841.982,441.524 841.51,441.76 841.081,442.062C842.554,443.171 845.955,446.035 847.775,448.625C852.617,446.667 856.846,443.449 860.025,439.306C860.483,438.763 860.802,438.117 860.955,437.423C861.107,436.73 861.088,436.009 860.9,435.325Z" style="fill:url(#pwql_Linear2);fill-rule:nonzero;"/>
    </g>
    <defs>
        <linearGradient id="pwql_Linear1" x1="0" y1="0" x2="1" y2="0" gradientUnits="userSpaceOnUse" gradientTransform="matrix(5.6357e-15,92.038,-92.038,5.6357e-15,799.728,393.8)"><stop offset="0" style="stop-color:rgb(161,210,250);stop-opacity:1"/><stop offset="1" style="stop-color:rgb(220,226,246);stop-opacity:1"/></linearGradient>
        <linearGradient id="pwql_Linear2" x1="0" y1="0" x2="1" y2="0" gradientUnits="userSpaceOnUse" gradientTransform="matrix(3.35706e-15,54.825,-54.825,3.35706e-15,834.903,393.8)"><stop offset="0" style="stop-color:rgb(250,250,252);stop-opacity:1"/><stop offset="1" style="stop-color:rgb(203,210,231);stop-opacity:1"/></linearGradient>
    </defs>
</svg>
