<?xml version="1.0" encoding="UTF-8" standalone="no"?>
<!DOCTYPE svg PUBLIC "-//W3C//DTD SVG 1.1//EN" "http://www.w3.org/Graphics/SVG/1.1/DTD/svg11.dtd">
<svg width="100%" height="100%" viewBox="0 0 300 300" version="1.1" xmlns="http://www.w3.org/2000/svg" xmlns:xlink="http://www.w3.org/1999/xlink" xml:space="preserve" xmlns:serif="http://www.serif.com/" style="fill-rule:evenodd;clip-rule:evenodd;stroke-linejoin:round;stroke-miterlimit:2;">
    <g transform="matrix(2.10579,0,0,2.10579,-2102.46,-776.392)">
        <path d="M1110.12,445.95C1111.41,443.656 1112.34,441.177 1112.87,438.6C1114.11,432.502 1113.13,426.165 1110.12,420.719C1107.12,415.273 1102.27,411.072 1096.46,408.865C1090.64,406.658 1084.23,406.589 1078.36,408.669C1072.5,410.75 1067.57,414.846 1064.44,420.225C1044.67,420.575 1028.39,434.007 1026.16,451.157C1021.39,451.78 1017,454.066 1013.75,457.611C1010.5,461.156 1008.61,465.734 1008.4,470.538C1008.71,476.044 1011.18,481.205 1015.28,484.894C1019.38,488.583 1024.77,490.5 1030.27,490.225L1074.02,490.225C1075.19,490.225 1076.3,489.764 1077.12,488.944C1077.94,488.124 1078.4,487.011 1078.4,485.85C1078.4,484.69 1077.94,483.577 1077.12,482.757C1076.3,481.936 1075.19,481.475 1074.02,481.475L1030.27,481.475C1027.09,481.732 1023.93,480.731 1021.48,478.686C1019.03,476.641 1017.47,473.716 1017.15,470.538C1017.47,467.36 1019.03,464.435 1021.48,462.39C1023.93,460.345 1027.09,459.344 1030.27,459.6C1031.44,459.6 1032.55,459.139 1033.37,458.319C1034.19,457.499 1034.65,456.386 1034.65,455.225C1034.65,440.744 1048.39,428.975 1065.27,428.975C1071.54,428.752 1077.72,430.458 1082.99,433.861C1088.26,437.264 1092.35,442.202 1094.72,448.007C1094.98,448.796 1095.46,449.496 1096.1,450.022C1096.74,450.549 1097.52,450.882 1098.35,450.982C1099.95,451.194 1101.52,451.59 1103.03,452.163C1105.97,453.182 1108.53,455.063 1110.38,457.561C1112.23,460.059 1113.28,463.057 1113.4,466.163C1113.09,470.505 1111.07,474.548 1107.8,477.414C1104.52,480.281 1100.25,481.74 1095.9,481.475L1091.52,481.475C1090.36,481.475 1089.25,481.936 1088.43,482.757C1087.61,483.577 1087.15,484.69 1087.15,485.85C1087.15,487.011 1087.61,488.124 1088.43,488.944C1089.25,489.764 1090.36,490.225 1091.52,490.225L1095.9,490.225C1102.57,490.498 1109.07,488.12 1113.99,483.611C1118.91,479.102 1121.84,472.829 1122.15,466.163C1122.08,462.036 1120.94,457.999 1118.83,454.453C1116.72,450.907 1113.71,447.975 1110.12,445.95ZM1074.55,421.275C1076.97,418.768 1080.08,417.038 1083.48,416.308C1086.89,415.579 1090.43,415.881 1093.67,417.178C1096.9,418.475 1099.67,420.706 1101.63,423.587C1103.58,426.468 1104.64,429.868 1104.65,433.35C1104.64,434.525 1104.53,435.697 1104.3,436.85C1103.86,438.86 1103.06,440.773 1101.94,442.494C1099.4,437.028 1095.59,432.249 1090.82,428.558C1086.06,424.866 1080.48,422.369 1074.55,421.275Z" style="fill:url(#atys_Linear1);fill-rule:nonzero;"/>
        <path d="M1110.12,445.95C1111.41,443.656 1112.34,441.177 1112.88,438.6C1114.11,432.502 1113.13,426.165 1110.12,420.719C1107.12,415.273 1102.27,411.072 1096.46,408.865C1090.64,406.658 1084.23,406.589 1078.36,408.669C1072.5,410.75 1067.57,414.846 1064.44,420.225C1066.18,420.159 1070.63,420.276 1074.55,421.275C1076.97,418.768 1080.08,417.038 1083.48,416.308C1086.89,415.579 1090.43,415.881 1093.67,417.178C1096.9,418.475 1099.67,420.706 1101.63,423.587C1103.58,426.468 1104.64,429.868 1104.65,433.35C1104.64,434.525 1104.53,435.697 1104.3,436.85C1103.86,438.86 1103.06,440.773 1101.94,442.494C1103.75,443.063 1107.91,444.55 1110.12,445.95Z" style="fill:url(#atys_Linear2);fill-rule:nonzero;"/>
        <path d="M1126.52,428.975L1122.15,428.975C1120.99,428.975 1119.88,429.436 1119.06,430.257C1118.24,431.077 1117.77,432.19 1117.77,433.35C1117.77,434.51 1118.24,435.623 1119.06,436.444C1119.88,437.264 1120.99,437.725 1122.15,437.725L1126.52,437.725C1127.69,437.725 1128.8,437.264 1129.62,436.444C1130.44,435.623 1130.9,434.51 1130.9,433.35C1130.9,432.19 1130.44,431.077 1129.62,430.257C1128.8,429.436 1127.69,428.975 1126.52,428.975Z" style="fill:url(#atys_Linear3);fill-rule:nonzero;"/>
        <path d="M1087.15,402.725C1088.31,402.725 1089.42,402.264 1090.24,401.444C1091.06,400.623 1091.52,399.51 1091.52,398.35L1091.52,393.975C1091.52,392.815 1091.06,391.702 1090.24,390.882C1089.42,390.061 1088.31,389.6 1087.15,389.6C1085.99,389.6 1084.88,390.061 1084.06,390.882C1083.24,391.702 1082.77,392.815 1082.77,393.975L1082.77,398.35C1082.77,399.51 1083.24,400.623 1084.06,401.444C1084.88,402.264 1085.99,402.725 1087.15,402.725Z" style="fill:url(#atys_Linear4);fill-rule:nonzero;"/>
        <path d="M1111.47,413.006C1112.05,413.004 1112.63,412.887 1113.16,412.662C1113.69,412.436 1114.18,412.107 1114.58,411.694L1117.64,408.544C1118.35,407.697 1118.71,406.615 1118.65,405.513C1118.6,404.412 1118.12,403.373 1117.33,402.604C1116.54,401.835 1115.49,401.394 1114.39,401.367C1113.29,401.341 1112.21,401.732 1111.39,402.463L1108.32,405.613C1107.73,406.232 1107.34,407.01 1107.19,407.851C1107.03,408.692 1107.13,409.56 1107.47,410.346C1107.8,411.133 1108.36,411.804 1109.07,412.277C1109.78,412.75 1110.62,413.003 1111.47,413.006Z" style="fill:url(#atys_Linear5);fill-rule:nonzero;"/>
        <path d="M1060.55,411.476C1060.95,411.937 1061.45,412.308 1062.01,412.564C1062.57,412.82 1063.17,412.956 1063.79,412.963C1064.87,412.972 1065.91,412.583 1066.72,411.869C1067.15,411.486 1067.51,411.021 1067.76,410.5C1068.01,409.98 1068.16,409.414 1068.19,408.836C1068.22,408.258 1068.14,407.68 1067.95,407.134C1067.76,406.588 1067.46,406.086 1067.07,405.657L1064.18,402.726C1063.4,401.913 1062.34,401.432 1061.21,401.385C1060.08,401.338 1058.98,401.727 1058.14,402.472C1057.29,403.217 1056.76,404.259 1056.67,405.383C1056.57,406.506 1056.91,407.623 1057.62,408.501L1060.55,411.476Z" style="fill:url(#atys_Linear6);fill-rule:nonzero;"/>
    </g>
    <defs>
        <linearGradient id="atys_Linear1" x1="0" y1="0" x2="1" y2="0" gradientUnits="userSpaceOnUse" gradientTransform="matrix(5.08798e-15,83.093,-83.093,5.08798e-15,1065.27,407.158)"><stop offset="0" style="stop-color:rgb(161,210,250);stop-opacity:1"/><stop offset="1" style="stop-color:rgb(220,226,246);stop-opacity:1"/></linearGradient>
        <linearGradient id="atys_Linear2" x1="0" y1="0" x2="1" y2="0" gradientUnits="userSpaceOnUse" gradientTransform="matrix(2.37532e-15,38.792,-38.792,2.37532e-15,1088.92,407.158)"><stop offset="0" style="stop-color:rgb(250,200,106);stop-opacity:1"/><stop offset="1" style="stop-color:rgb(241,103,76);stop-opacity:1"/></linearGradient>
        <linearGradient id="atys_Linear3" x1="0" y1="0" x2="1" y2="0" gradientUnits="userSpaceOnUse" gradientTransform="matrix(5.35783e-16,8.75,-8.75,5.35783e-16,1124.34,428.975)"><stop offset="0" style="stop-color:rgb(250,200,106);stop-opacity:1"/><stop offset="1" style="stop-color:rgb(241,103,76);stop-opacity:1"/></linearGradient>
        <linearGradient id="atys_Linear4" x1="0" y1="0" x2="1" y2="0" gradientUnits="userSpaceOnUse" gradientTransform="matrix(8.03674e-16,13.125,-13.125,8.03674e-16,1087.15,389.6)"><stop offset="0" style="stop-color:rgb(250,200,106);stop-opacity:1"/><stop offset="1" style="stop-color:rgb(241,103,76);stop-opacity:1"/></linearGradient>
        <linearGradient id="atys_Linear5" x1="0" y1="0" x2="1" y2="0" gradientUnits="userSpaceOnUse" gradientTransform="matrix(7.12744e-16,11.64,-11.64,7.12744e-16,1112.89,401.366)"><stop offset="0" style="stop-color:rgb(250,200,106);stop-opacity:1"/><stop offset="1" style="stop-color:rgb(241,103,76);stop-opacity:1"/></linearGradient>
        <linearGradient id="atys_Linear6" x1="0" y1="0" x2="1" y2="0" gradientUnits="userSpaceOnUse" gradientTransform="matrix(7.09193e-16,11.582,-11.582,7.09193e-16,1062.42,401.381)"><stop offset="0" style="stop-color:rgb(250,200,106);stop-opacity:1"/><stop offset="1" style="stop-color:rgb(241,103,76);stop-opacity:1"/></linearGradient>
    </defs>
</svg>
