<?xml version="1.0" encoding="UTF-8" standalone="no"?>
<!DOCTYPE svg PUBLIC "-//W3C//DTD SVG 1.1//EN" "http://www.w3.org/Graphics/SVG/1.1/DTD/svg11.dtd">
<svg width="100%" height="100%" viewBox="0 0 300 300" version="1.1" xmlns="http://www.w3.org/2000/svg" xmlns:xlink="http://www.w3.org/1999/xlink" xml:space="preserve" xmlns:serif="http://www.serif.com/" style="fill-rule:evenodd;clip-rule:evenodd;stroke-linejoin:round;stroke-miterlimit:2;">
    <g transform="matrix(0.375,0,0,0.375,150,150)">
        <g id="drop-svgrepo-com.svg" transform="matrix(1,0,0,1,-400,-400)">
            <path d="M399.995,770.667C567.38,770.63 699.943,649.397 699.943,506.933C699.943,452.05 682.547,398.553 650.267,354.167L426.933,47.067C420.37,38.902 410.442,34.145 399.967,34.145C389.491,34.145 379.563,38.902 373,47.067L149.667,354.167C117.386,398.553 99.99,452.05 99.99,506.933C99.99,649.419 237.854,770.667 399.995,770.667C399.998,770.667 399.992,770.667 399.995,770.667ZM166.667,506.933C166.569,466.112 179.499,426.305 203.567,393.333L400,123.333L596.433,393.333C620.449,426.335 633.392,466.118 633.392,506.933C633.392,612.847 541.041,704 400.029,704C400.01,704 400.049,704 400.029,704C261.529,703.809 166.813,612.791 166.667,506.933ZM374.833,641.667C310.302,641.729 250.794,606.011 220.5,549.033C217.762,544.091 216.326,538.533 216.326,532.883C216.326,514.596 231.373,499.549 249.659,499.549C262.128,499.549 273.596,506.546 279.3,517.633C298.043,552.915 334.882,575.036 374.833,575C393.119,575 408.167,590.047 408.167,608.333C408.167,626.619 393.119,641.667 374.833,641.667Z" style="fill-rule:nonzero;fill:currentColor;"/>
        </g>
        <g id="drop-svgrepo-com.svg1" serif:id="drop-svgrepo-com.svg">
        </g>
    </g>
</svg>
