<?xml version="1.0" encoding="UTF-8" standalone="no"?>
<!DOCTYPE svg PUBLIC "-//W3C//DTD SVG 1.1//EN" "http://www.w3.org/Graphics/SVG/1.1/DTD/svg11.dtd">
<svg width="100%" height="100%" viewBox="0 0 300 300" version="1.1" xmlns="http://www.w3.org/2000/svg" xmlns:xlink="http://www.w3.org/1999/xlink" xml:space="preserve" xmlns:serif="http://www.serif.com/" style="fill-rule:evenodd;clip-rule:evenodd;stroke-linejoin:round;stroke-miterlimit:2;">
    <g transform="matrix(2.10579,0,0,2.10579,-965.612,-1449.64)">
        <path d="M554.144,699.211C553.403,698.683 552.516,698.4 551.607,698.4C550.697,698.4 549.81,698.683 549.069,699.211C543.554,703.062 538.781,707.879 534.982,713.43C534.607,713.901 534.333,714.445 534.177,715.027C534.022,715.609 533.989,716.217 534.079,716.813C534.17,717.409 534.383,717.979 534.704,718.489C535.026,718.998 535.449,719.436 535.947,719.775C536.446,720.113 537.009,720.345 537.601,720.455C538.194,720.566 538.802,720.553 539.389,720.417C539.977,720.282 540.529,720.026 541.013,719.667C541.497,719.308 541.901,718.853 542.201,718.33C544.828,714.522 547.997,711.117 551.607,708.223C565.169,719.205 569.457,733.992 565.476,742.086C564.142,744.639 562.156,746.793 559.72,748.329C557.284,749.866 554.485,750.731 551.607,750.836C548.729,750.731 545.929,749.866 543.494,748.329C541.058,746.793 539.072,744.639 537.738,742.086C536.535,739.475 536.037,736.593 536.294,733.73C536.34,733.155 536.273,732.577 536.095,732.029C535.918,731.48 535.634,730.972 535.26,730.534C534.887,730.095 534.43,729.734 533.917,729.472C533.404,729.209 532.844,729.051 532.269,729.005C531.695,728.959 531.117,729.026 530.568,729.204C530.02,729.381 529.512,729.665 529.073,730.039C528.635,730.412 528.274,730.869 528.011,731.382C527.749,731.895 527.59,732.455 527.544,733.03C527.148,737.453 527.917,741.903 529.776,745.936C531.845,749.981 534.972,753.391 538.823,755.802C542.675,758.213 547.108,759.536 551.651,759.63C556.194,759.536 560.626,758.213 564.478,755.802C568.329,753.391 571.456,749.981 573.526,745.936C580.044,731.98 571.951,711.855 554.144,699.211Z" style="fill:url(#ysnp_Linear1);fill-rule:nonzero;"/>
        <path d="M540.669,785.879C539.509,785.879 538.396,786.34 537.576,787.161C536.755,787.981 536.294,789.094 536.294,790.254C536.544,793.696 535.864,797.141 534.325,800.229C532.32,803.765 529.432,806.721 525.943,808.807C522.454,810.893 518.483,812.037 514.419,812.129C510.38,812.048 506.429,810.926 502.95,808.872C499.471,806.818 496.58,803.902 494.557,800.404C489,789.773 495.125,770.26 514.419,756.217C521.376,761.154 527.194,767.524 531.482,774.898C531.769,775.398 532.152,775.836 532.609,776.188C533.065,776.54 533.587,776.798 534.143,776.949C534.7,777.099 535.281,777.138 535.852,777.064C536.424,776.99 536.976,776.804 537.475,776.517C537.975,776.229 538.414,775.847 538.766,775.39C539.117,774.933 539.376,774.412 539.526,773.855C539.677,773.299 539.716,772.718 539.642,772.146C539.568,771.574 539.382,771.023 539.094,770.523C533.631,761.092 526.016,753.087 516.869,747.16C516.15,746.681 515.305,746.425 514.441,746.425C513.577,746.425 512.732,746.681 512.013,747.16C489.088,762.473 478.019,787.585 486.813,804.385C489.565,809.313 493.565,813.43 498.41,816.325C503.255,819.22 508.776,820.791 514.419,820.879C520.054,820.799 525.569,819.242 530.414,816.363C535.258,813.484 539.262,809.384 542.025,804.473C544.288,800.09 545.331,795.179 545.044,790.254C545.044,789.094 544.583,787.981 543.763,787.161C542.942,786.34 541.83,785.879 540.669,785.879Z" style="fill:url(#ysnp_Linear2);fill-rule:nonzero;"/>
        <path d="M501.775,781.505C500.627,781.382 499.478,781.718 498.576,782.439C497.675,783.16 497.095,784.208 496.963,785.355C496.608,788.381 496.926,791.448 497.895,794.337C498.863,797.226 500.457,799.866 502.563,802.067C505.59,805.115 509.516,807.109 513.763,807.755L514.419,807.755C515.579,807.842 516.727,807.464 517.609,806.706C518.491,805.947 519.035,804.868 519.122,803.708C519.209,802.548 518.832,801.4 518.073,800.518C517.314,799.636 516.236,799.092 515.075,799.005C512.704,798.649 510.502,797.563 508.775,795.899C507.611,794.62 506.733,793.108 506.197,791.464C505.662,789.819 505.482,788.08 505.669,786.361C505.736,785.786 505.688,785.203 505.528,784.647C505.368,784.091 505.099,783.571 504.737,783.12C504.374,782.668 503.926,782.293 503.418,782.015C502.909,781.738 502.351,781.565 501.775,781.505Z" style="fill:url(#ysnp_Linear3);fill-rule:nonzero;"/>
    </g>
    <defs>
        <linearGradient id="ysnp_Linear1" x1="0" y1="0" x2="1" y2="0" gradientUnits="userSpaceOnUse" gradientTransform="matrix(3.74926e-15,61.23,-61.23,3.74926e-15,551.604,698.4)"><stop offset="0" style="stop-color:rgb(124,177,248);stop-opacity:1"/><stop offset="1" style="stop-color:rgb(52,149,227);stop-opacity:1"/></linearGradient>
        <linearGradient id="ysnp_Linear2" x1="0" y1="0" x2="1" y2="0" gradientUnits="userSpaceOnUse" gradientTransform="matrix(4.55899e-15,74.454,-74.454,4.55899e-15,514.445,746.425)"><stop offset="0" style="stop-color:rgb(124,177,248);stop-opacity:1"/><stop offset="1" style="stop-color:rgb(52,149,227);stop-opacity:1"/></linearGradient>
        <linearGradient id="ysnp_Linear3" x1="0" y1="0" x2="1" y2="0" gradientUnits="userSpaceOnUse" gradientTransform="matrix(1.60961e-15,26.287,-26.287,1.60961e-15,507.978,781.48)"><stop offset="0" style="stop-color:rgb(124,177,248);stop-opacity:1"/><stop offset="1" style="stop-color:rgb(52,149,227);stop-opacity:1"/></linearGradient>
    </defs>
</svg>
